<mxfile host="app.diagrams.net" modified="2024-06-25T03:07:58.137Z" agent="Mozilla/5.0 (Windows NT 10.0; Win64; x64) AppleWebKit/537.36 (KHTML, like Gecko) Chrome/126.0.0.0 Safari/537.36" etag="XQ4aDKwMfMjDMGERsO27" version="24.6.0" type="device">
  <diagram name="Page-1" id="YLKkbuRHNSi45PAIOOmi">
    <mxGraphModel dx="1850" dy="183" grid="1" gridSize="10" guides="1" tooltips="1" connect="1" arrows="1" fold="1" page="0" pageScale="1" pageWidth="850" pageHeight="1100" math="0" shadow="0">
      <root>
        <mxCell id="0" />
        <mxCell id="1" parent="0" />
        <mxCell id="gEE7imtbmTJIeYi22en9-2" value="" style="rounded=1;whiteSpace=wrap;html=1;fillColor=#f8cecc;strokeColor=#b85450;" parent="1" vertex="1">
          <mxGeometry x="210" y="538" width="225" height="156" as="geometry" />
        </mxCell>
        <mxCell id="gEE7imtbmTJIeYi22en9-3" value="&lt;b&gt;Docker CE&lt;/b&gt;" style="text;html=1;align=center;verticalAlign=middle;resizable=0;points=[];autosize=1;strokeColor=none;fillColor=none;fontSize=16;" parent="1" vertex="1">
          <mxGeometry x="327" y="542" width="99" height="31" as="geometry" />
        </mxCell>
        <mxCell id="gEE7imtbmTJIeYi22en9-4" value="&lt;b&gt;local repo&lt;/b&gt;" style="ellipse;whiteSpace=wrap;html=1;aspect=fixed;" parent="1" vertex="1">
          <mxGeometry x="336.5" y="590" width="80" height="80" as="geometry" />
        </mxCell>
        <mxCell id="gEE7imtbmTJIeYi22en9-6" style="edgeStyle=none;curved=1;rounded=0;orthogonalLoop=1;jettySize=auto;html=1;entryX=1;entryY=0.5;entryDx=0;entryDy=0;fontSize=12;startSize=8;endSize=8;" parent="1" source="gEE7imtbmTJIeYi22en9-5" target="gEE7imtbmTJIeYi22en9-4" edge="1">
          <mxGeometry relative="1" as="geometry">
            <Array as="points">
              <mxPoint x="547" y="633" />
            </Array>
          </mxGeometry>
        </mxCell>
        <mxCell id="gEE7imtbmTJIeYi22en9-5" value="" style="image;sketch=0;aspect=fixed;html=1;points=[];align=center;fontSize=12;image=img/lib/mscae/Docker.svg;" parent="1" vertex="1">
          <mxGeometry x="455" y="401" width="126.83" height="104" as="geometry" />
        </mxCell>
        <mxCell id="gEE7imtbmTJIeYi22en9-7" value="" style="shape=image;html=1;verticalAlign=top;verticalLabelPosition=bottom;labelBackgroundColor=#ffffff;imageAspect=0;aspect=fixed;image=https://cdn1.iconfinder.com/data/icons/unicons-line-vol-3/24/docker-128.png" parent="1" vertex="1">
          <mxGeometry x="275" y="606" width="48" height="48" as="geometry" />
        </mxCell>
        <mxCell id="gEE7imtbmTJIeYi22en9-12" style="edgeStyle=none;curved=1;rounded=0;orthogonalLoop=1;jettySize=auto;html=1;entryX=0;entryY=0.5;entryDx=0;entryDy=0;fontSize=12;startSize=8;endSize=8;" parent="1" source="gEE7imtbmTJIeYi22en9-8" target="gEE7imtbmTJIeYi22en9-11" edge="1">
          <mxGeometry relative="1" as="geometry" />
        </mxCell>
        <mxCell id="gEE7imtbmTJIeYi22en9-8" value="" style="html=1;verticalLabelPosition=bottom;align=center;labelBackgroundColor=#ffffff;verticalAlign=top;strokeWidth=2;strokeColor=#0080F0;shadow=0;dashed=0;shape=mxgraph.ios7.icons.user;" parent="1" vertex="1">
          <mxGeometry x="-12" y="578.5" width="86" height="75" as="geometry" />
        </mxCell>
        <mxCell id="gEE7imtbmTJIeYi22en9-13" style="edgeStyle=none;curved=1;rounded=0;orthogonalLoop=1;jettySize=auto;html=1;entryX=0;entryY=0.5;entryDx=0;entryDy=0;fontSize=12;startSize=8;endSize=8;" parent="1" source="gEE7imtbmTJIeYi22en9-11" target="gEE7imtbmTJIeYi22en9-7" edge="1">
          <mxGeometry relative="1" as="geometry" />
        </mxCell>
        <mxCell id="gEE7imtbmTJIeYi22en9-11" value="" style="rounded=1;whiteSpace=wrap;html=1;" parent="1" vertex="1">
          <mxGeometry x="198" y="586" width="26" height="60" as="geometry" />
        </mxCell>
        <mxCell id="WxwY7AKl30t8H31mjGnm-1" value="" style="rounded=1;whiteSpace=wrap;html=1;fillColor=#f8cecc;strokeColor=#b85450;" parent="1" vertex="1">
          <mxGeometry x="98" y="802" width="225" height="156" as="geometry" />
        </mxCell>
        <mxCell id="WxwY7AKl30t8H31mjGnm-2" value="" style="ellipse;whiteSpace=wrap;html=1;" parent="1" vertex="1">
          <mxGeometry x="193" y="824" width="86" height="54" as="geometry" />
        </mxCell>
        <mxCell id="WxwY7AKl30t8H31mjGnm-5" style="edgeStyle=orthogonalEdgeStyle;rounded=0;orthogonalLoop=1;jettySize=auto;html=1;" parent="1" source="WxwY7AKl30t8H31mjGnm-3" edge="1">
          <mxGeometry relative="1" as="geometry">
            <mxPoint x="234" y="918.9028625488281" as="targetPoint" />
          </mxGeometry>
        </mxCell>
        <mxCell id="WxwY7AKl30t8H31mjGnm-3" value="" style="shape=image;html=1;verticalAlign=top;verticalLabelPosition=bottom;labelBackgroundColor=#ffffff;imageAspect=0;aspect=fixed;image=https://cdn1.iconfinder.com/data/icons/unicons-line-vol-3/24/docker-128.png" parent="1" vertex="1">
          <mxGeometry x="210" y="827" width="48" height="48" as="geometry" />
        </mxCell>
        <mxCell id="WxwY7AKl30t8H31mjGnm-4" value="" style="endArrow=none;html=1;rounded=0;exitX=0;exitY=0.75;exitDx=0;exitDy=0;entryX=1;entryY=0.75;entryDx=0;entryDy=0;" parent="1" source="WxwY7AKl30t8H31mjGnm-1" target="WxwY7AKl30t8H31mjGnm-1" edge="1">
          <mxGeometry width="50" height="50" relative="1" as="geometry">
            <mxPoint x="258" y="750" as="sourcePoint" />
            <mxPoint x="308" y="700" as="targetPoint" />
          </mxGeometry>
        </mxCell>
        <mxCell id="WxwY7AKl30t8H31mjGnm-6" value="" style="shape=image;html=1;verticalAlign=top;verticalLabelPosition=bottom;labelBackgroundColor=#ffffff;imageAspect=0;aspect=fixed;image=https://cdn1.iconfinder.com/data/icons/unicons-line-vol-3/24/docker-128.png" parent="1" vertex="1">
          <mxGeometry x="119" y="830" width="48" height="48" as="geometry" />
        </mxCell>
        <mxCell id="WxwY7AKl30t8H31mjGnm-7" value="" style="ellipse;whiteSpace=wrap;html=1;" parent="1" vertex="1">
          <mxGeometry x="104" y="824" width="86" height="54" as="geometry" />
        </mxCell>
        <mxCell id="WxwY7AKl30t8H31mjGnm-9" style="edgeStyle=orthogonalEdgeStyle;rounded=0;orthogonalLoop=1;jettySize=auto;html=1;" parent="1" source="WxwY7AKl30t8H31mjGnm-8" edge="1">
          <mxGeometry relative="1" as="geometry">
            <mxPoint x="151" y="923.3472595214844" as="targetPoint" />
          </mxGeometry>
        </mxCell>
        <mxCell id="WxwY7AKl30t8H31mjGnm-8" value="" style="shape=image;html=1;verticalAlign=top;verticalLabelPosition=bottom;labelBackgroundColor=#ffffff;imageAspect=0;aspect=fixed;image=https://cdn1.iconfinder.com/data/icons/unicons-line-vol-3/24/docker-128.png" parent="1" vertex="1">
          <mxGeometry x="127" y="830" width="48" height="48" as="geometry" />
        </mxCell>
        <mxCell id="WxwY7AKl30t8H31mjGnm-12" style="edgeStyle=orthogonalEdgeStyle;rounded=0;orthogonalLoop=1;jettySize=auto;html=1;" parent="1" source="WxwY7AKl30t8H31mjGnm-10" target="WxwY7AKl30t8H31mjGnm-11" edge="1">
          <mxGeometry relative="1" as="geometry" />
        </mxCell>
        <mxCell id="WxwY7AKl30t8H31mjGnm-10" value="&lt;b&gt;&lt;font style=&quot;font-size: 14px;&quot;&gt;Backend&lt;/font&gt;&lt;/b&gt;" style="rounded=1;whiteSpace=wrap;html=1;fillColor=#f8cecc;strokeColor=#b85450;" parent="1" vertex="1">
          <mxGeometry x="132" y="1054" width="225" height="156" as="geometry" />
        </mxCell>
        <mxCell id="WxwY7AKl30t8H31mjGnm-11" value="&lt;b&gt;DB&lt;/b&gt;" style="shape=cylinder3;whiteSpace=wrap;html=1;boundedLbl=1;backgroundOutline=1;size=15;fillColor=#d5e8d4;strokeColor=#82b366;" parent="1" vertex="1">
          <mxGeometry x="600" y="1049" width="159" height="166" as="geometry" />
        </mxCell>
        <mxCell id="WxwY7AKl30t8H31mjGnm-14" style="edgeStyle=orthogonalEdgeStyle;rounded=0;orthogonalLoop=1;jettySize=auto;html=1;" parent="1" source="WxwY7AKl30t8H31mjGnm-13" edge="1">
          <mxGeometry relative="1" as="geometry">
            <mxPoint x="679.5" y="1048.9028015136719" as="targetPoint" />
          </mxGeometry>
        </mxCell>
        <mxCell id="WxwY7AKl30t8H31mjGnm-13" value="&lt;b&gt;Jump Host&lt;/b&gt;" style="ellipse;whiteSpace=wrap;html=1;aspect=fixed;fillColor=#ffe6cc;strokeColor=#d79b00;" parent="1" vertex="1">
          <mxGeometry x="610" y="718" width="139" height="139" as="geometry" />
        </mxCell>
        <mxCell id="o3ZxV5O5m04WIbQzUVBZ-1" value="" style="rounded=0;whiteSpace=wrap;html=1;" parent="1" vertex="1">
          <mxGeometry x="20" y="1350" width="570" height="290" as="geometry" />
        </mxCell>
        <mxCell id="o3ZxV5O5m04WIbQzUVBZ-2" value="" style="sketch=0;pointerEvents=1;shadow=0;dashed=0;html=1;strokeColor=none;fillColor=#434445;aspect=fixed;labelPosition=center;verticalLabelPosition=bottom;verticalAlign=top;align=center;outlineConnect=0;shape=mxgraph.vvd.ethernet_port;" parent="1" vertex="1">
          <mxGeometry x="-30" y="1440" width="90" height="90" as="geometry" />
        </mxCell>
        <mxCell id="o3ZxV5O5m04WIbQzUVBZ-3" value="" style="pointerEvents=1;verticalLabelPosition=bottom;shadow=0;dashed=0;align=center;html=1;verticalAlign=top;shape=mxgraph.electrical.miscellaneous.cable_termination" parent="1" vertex="1">
          <mxGeometry x="-220" y="1460" width="200" height="50" as="geometry" />
        </mxCell>
        <mxCell id="o3ZxV5O5m04WIbQzUVBZ-4" value="&lt;b&gt;&lt;font style=&quot;font-size: 13px;&quot;&gt;eth0&lt;/font&gt;&lt;/b&gt;" style="text;html=1;align=center;verticalAlign=middle;resizable=0;points=[];autosize=1;strokeColor=none;fillColor=none;" parent="1" vertex="1">
          <mxGeometry x="-80" y="1540" width="50" height="30" as="geometry" />
        </mxCell>
        <mxCell id="o3ZxV5O5m04WIbQzUVBZ-10" style="edgeStyle=orthogonalEdgeStyle;rounded=0;orthogonalLoop=1;jettySize=auto;html=1;" parent="1" source="o3ZxV5O5m04WIbQzUVBZ-5" target="o3ZxV5O5m04WIbQzUVBZ-6" edge="1">
          <mxGeometry relative="1" as="geometry" />
        </mxCell>
        <mxCell id="o3ZxV5O5m04WIbQzUVBZ-11" style="edgeStyle=orthogonalEdgeStyle;rounded=0;orthogonalLoop=1;jettySize=auto;html=1;" parent="1" source="o3ZxV5O5m04WIbQzUVBZ-5" target="o3ZxV5O5m04WIbQzUVBZ-7" edge="1">
          <mxGeometry relative="1" as="geometry" />
        </mxCell>
        <mxCell id="o3ZxV5O5m04WIbQzUVBZ-5" value="&lt;b&gt;&lt;font style=&quot;font-size: 14px;&quot;&gt;docker0&lt;/font&gt;&lt;/b&gt;" style="ellipse;whiteSpace=wrap;html=1;aspect=fixed;fillColor=#dae8fc;strokeColor=#6c8ebf;" parent="1" vertex="1">
          <mxGeometry x="150" y="1445" width="80" height="80" as="geometry" />
        </mxCell>
        <mxCell id="o3ZxV5O5m04WIbQzUVBZ-6" value="" style="shape=image;html=1;verticalAlign=top;verticalLabelPosition=bottom;labelBackgroundColor=#ffffff;imageAspect=0;aspect=fixed;image=https://cdn1.iconfinder.com/data/icons/unicons-line-vol-3/24/docker-128.png" parent="1" vertex="1">
          <mxGeometry x="310" y="1360" width="100" height="100" as="geometry" />
        </mxCell>
        <mxCell id="o3ZxV5O5m04WIbQzUVBZ-7" value="" style="shape=image;html=1;verticalAlign=top;verticalLabelPosition=bottom;labelBackgroundColor=#ffffff;imageAspect=0;aspect=fixed;image=https://cdn1.iconfinder.com/data/icons/unicons-line-vol-3/24/docker-128.png" parent="1" vertex="1">
          <mxGeometry x="310" y="1490" width="100" height="100" as="geometry" />
        </mxCell>
        <mxCell id="o3ZxV5O5m04WIbQzUVBZ-8" value="&lt;h2&gt;&lt;b&gt;&lt;font style=&quot;font-size: 14px;&quot;&gt;mysql&lt;/font&gt;&lt;/b&gt;&lt;/h2&gt;" style="text;html=1;align=center;verticalAlign=middle;resizable=0;points=[];autosize=1;strokeColor=none;fillColor=none;" parent="1" vertex="1">
          <mxGeometry x="366" y="1400" width="60" height="60" as="geometry" />
        </mxCell>
        <mxCell id="o3ZxV5O5m04WIbQzUVBZ-9" value="&lt;h2&gt;&lt;b&gt;&lt;font style=&quot;font-size: 14px;&quot;&gt;backend&lt;/font&gt;&lt;/b&gt;&lt;/h2&gt;" style="text;html=1;align=center;verticalAlign=middle;resizable=0;points=[];autosize=1;strokeColor=none;fillColor=none;" parent="1" vertex="1">
          <mxGeometry x="365" y="1540" width="80" height="60" as="geometry" />
        </mxCell>
        <mxCell id="o3ZxV5O5m04WIbQzUVBZ-14" value="" style="rounded=0;whiteSpace=wrap;html=1;fillColor=#d5e8d4;strokeColor=#82b366;gradientColor=#97d077;" parent="1" vertex="1">
          <mxGeometry x="14" y="1800" width="570" height="290" as="geometry" />
        </mxCell>
        <mxCell id="o3ZxV5O5m04WIbQzUVBZ-22" style="edgeStyle=orthogonalEdgeStyle;rounded=0;orthogonalLoop=1;jettySize=auto;html=1;" parent="1" source="o3ZxV5O5m04WIbQzUVBZ-15" target="o3ZxV5O5m04WIbQzUVBZ-18" edge="1">
          <mxGeometry relative="1" as="geometry" />
        </mxCell>
        <mxCell id="o3ZxV5O5m04WIbQzUVBZ-15" value="" style="sketch=0;pointerEvents=1;shadow=0;dashed=0;html=1;strokeColor=none;fillColor=#434445;aspect=fixed;labelPosition=center;verticalLabelPosition=bottom;verticalAlign=top;align=center;outlineConnect=0;shape=mxgraph.vvd.ethernet_port;" parent="1" vertex="1">
          <mxGeometry x="-30" y="1895" width="90" height="90" as="geometry" />
        </mxCell>
        <mxCell id="o3ZxV5O5m04WIbQzUVBZ-16" value="&lt;b&gt;8080&lt;/b&gt;" style="text;html=1;align=center;verticalAlign=middle;resizable=0;points=[];autosize=1;strokeColor=none;fillColor=none;" parent="1" vertex="1">
          <mxGeometry x="-50" y="1870" width="50" height="30" as="geometry" />
        </mxCell>
        <mxCell id="o3ZxV5O5m04WIbQzUVBZ-19" style="edgeStyle=orthogonalEdgeStyle;rounded=0;orthogonalLoop=1;jettySize=auto;html=1;" parent="1" source="o3ZxV5O5m04WIbQzUVBZ-17" target="o3ZxV5O5m04WIbQzUVBZ-18" edge="1">
          <mxGeometry relative="1" as="geometry">
            <Array as="points">
              <mxPoint x="200" y="1870" />
            </Array>
          </mxGeometry>
        </mxCell>
        <mxCell id="o3ZxV5O5m04WIbQzUVBZ-17" value="" style="shape=image;html=1;verticalAlign=top;verticalLabelPosition=bottom;labelBackgroundColor=#ffffff;imageAspect=0;aspect=fixed;image=https://cdn1.iconfinder.com/data/icons/unicons-line-vol-3/24/docker-128.png" parent="1" vertex="1">
          <mxGeometry x="435" y="1830" width="80" height="80" as="geometry" />
        </mxCell>
        <mxCell id="o3ZxV5O5m04WIbQzUVBZ-18" value="&lt;b&gt;expense&lt;/b&gt;" style="ellipse;whiteSpace=wrap;html=1;fillColor=#f8cecc;gradientColor=#ea6b66;strokeColor=#b85450;" parent="1" vertex="1">
          <mxGeometry x="132" y="1900" width="120" height="80" as="geometry" />
        </mxCell>
        <mxCell id="o3ZxV5O5m04WIbQzUVBZ-20" value="" style="endArrow=classic;html=1;rounded=0;" parent="1" target="o3ZxV5O5m04WIbQzUVBZ-15" edge="1">
          <mxGeometry width="50" height="50" relative="1" as="geometry">
            <mxPoint x="-160" y="1940" as="sourcePoint" />
            <mxPoint x="320" y="1890" as="targetPoint" />
          </mxGeometry>
        </mxCell>
        <mxCell id="o3ZxV5O5m04WIbQzUVBZ-21" value="&lt;b&gt;Backend&lt;/b&gt;" style="text;html=1;align=center;verticalAlign=middle;resizable=0;points=[];autosize=1;strokeColor=none;fillColor=none;" parent="1" vertex="1">
          <mxGeometry x="445" y="1900" width="70" height="30" as="geometry" />
        </mxCell>
        <mxCell id="o3ZxV5O5m04WIbQzUVBZ-24" style="edgeStyle=orthogonalEdgeStyle;rounded=0;orthogonalLoop=1;jettySize=auto;html=1;entryX=1;entryY=0.5;entryDx=0;entryDy=0;" parent="1" source="o3ZxV5O5m04WIbQzUVBZ-23" target="o3ZxV5O5m04WIbQzUVBZ-18" edge="1">
          <mxGeometry relative="1" as="geometry" />
        </mxCell>
        <mxCell id="o3ZxV5O5m04WIbQzUVBZ-27" style="edgeStyle=orthogonalEdgeStyle;rounded=0;orthogonalLoop=1;jettySize=auto;html=1;" parent="1" source="o3ZxV5O5m04WIbQzUVBZ-23" target="o3ZxV5O5m04WIbQzUVBZ-17" edge="1">
          <mxGeometry relative="1" as="geometry" />
        </mxCell>
        <mxCell id="o3ZxV5O5m04WIbQzUVBZ-23" value="" style="shape=image;html=1;verticalAlign=top;verticalLabelPosition=bottom;labelBackgroundColor=#ffffff;imageAspect=0;aspect=fixed;image=https://cdn1.iconfinder.com/data/icons/unicons-line-vol-3/24/docker-128.png" parent="1" vertex="1">
          <mxGeometry x="310" y="1900" width="80" height="80" as="geometry" />
        </mxCell>
        <mxCell id="o3ZxV5O5m04WIbQzUVBZ-25" value="&lt;b&gt;Frontend&lt;/b&gt;" style="text;html=1;align=center;verticalAlign=middle;resizable=0;points=[];autosize=1;strokeColor=none;fillColor=none;" parent="1" vertex="1">
          <mxGeometry x="300" y="1960" width="80" height="30" as="geometry" />
        </mxCell>
        <mxCell id="o3ZxV5O5m04WIbQzUVBZ-26" value="&lt;b&gt;/api --&amp;gt; backend&lt;/b&gt;" style="text;html=1;align=center;verticalAlign=middle;resizable=0;points=[];autosize=1;strokeColor=none;fillColor=none;" parent="1" vertex="1">
          <mxGeometry x="316" y="1890" width="110" height="30" as="geometry" />
        </mxCell>
        <mxCell id="FVXrQ5UTmjQ1m_fRflTd-1" value="&lt;b&gt;Host Storage&lt;/b&gt;" style="text;html=1;align=center;verticalAlign=middle;resizable=0;points=[];autosize=1;strokeColor=none;fillColor=none;" vertex="1" parent="1">
          <mxGeometry x="167" y="928" width="100" height="30" as="geometry" />
        </mxCell>
        <mxCell id="FVXrQ5UTmjQ1m_fRflTd-5" value="" style="edgeStyle=orthogonalEdgeStyle;rounded=0;orthogonalLoop=1;jettySize=auto;html=1;" edge="1" parent="1" source="FVXrQ5UTmjQ1m_fRflTd-2" target="FVXrQ5UTmjQ1m_fRflTd-3">
          <mxGeometry relative="1" as="geometry" />
        </mxCell>
        <mxCell id="FVXrQ5UTmjQ1m_fRflTd-2" value="&lt;div style=&quot;color: rgb(204, 204, 204); background-color: rgb(31, 31, 31); font-family: Consolas, &amp;quot;Courier New&amp;quot;, monospace; font-size: 14px; line-height: 19px; white-space: pre;&quot;&gt;&lt;span style=&quot;color: #c586c0;&quot;&gt;FROM&lt;/span&gt; &lt;span style=&quot;color: #4ec9b0;&quot;&gt;nginx&lt;/span&gt;&lt;/div&gt;" style="rounded=0;whiteSpace=wrap;html=1;" vertex="1" parent="1">
          <mxGeometry x="-320" y="2480" width="180" height="40" as="geometry" />
        </mxCell>
        <mxCell id="FVXrQ5UTmjQ1m_fRflTd-7" style="edgeStyle=orthogonalEdgeStyle;rounded=0;orthogonalLoop=1;jettySize=auto;html=1;entryX=0.5;entryY=1;entryDx=0;entryDy=0;" edge="1" parent="1" source="FVXrQ5UTmjQ1m_fRflTd-3" target="FVXrQ5UTmjQ1m_fRflTd-6">
          <mxGeometry relative="1" as="geometry" />
        </mxCell>
        <mxCell id="FVXrQ5UTmjQ1m_fRflTd-3" value="" style="shape=image;html=1;verticalAlign=top;verticalLabelPosition=bottom;labelBackgroundColor=#ffffff;imageAspect=0;aspect=fixed;image=https://cdn1.iconfinder.com/data/icons/unicons-line-vol-3/24/docker-128.png" vertex="1" parent="1">
          <mxGeometry x="-265" y="2370" width="70" height="70" as="geometry" />
        </mxCell>
        <mxCell id="FVXrQ5UTmjQ1m_fRflTd-10" style="edgeStyle=orthogonalEdgeStyle;rounded=0;orthogonalLoop=1;jettySize=auto;html=1;" edge="1" parent="1" source="FVXrQ5UTmjQ1m_fRflTd-6">
          <mxGeometry relative="1" as="geometry">
            <mxPoint x="-50" y="2500" as="targetPoint" />
            <Array as="points">
              <mxPoint x="-49" y="2310" />
            </Array>
          </mxGeometry>
        </mxCell>
        <mxCell id="FVXrQ5UTmjQ1m_fRflTd-6" value="&lt;div style=&quot;color: rgb(204, 204, 204); background-color: rgb(31, 31, 31); font-family: Consolas, &amp;quot;Courier New&amp;quot;, monospace; font-size: 14px; line-height: 19px; white-space: pre;&quot;&gt;&lt;span style=&quot;white-space: pre;&quot;&gt;&#x9;&lt;/span&gt;&lt;span style=&quot;white-space: pre;&quot;&gt;&#x9;&lt;/span&gt;&lt;span style=&quot;white-space: pre;&quot;&gt;&#x9;&lt;/span&gt;&lt;span style=&quot;white-space: pre;&quot;&gt;&#x9;&lt;/span&gt;&lt;span style=&quot;color: rgb(197, 134, 192);&quot;&gt;RUN&lt;/span&gt; &lt;span style=&quot;color: rgb(156, 220, 254);&quot;&gt;rm&lt;/span&gt; &lt;span style=&quot;color: rgb(156, 220, 254);&quot;&gt;-rf&lt;/span&gt; &lt;span style=&quot;color: rgb(156, 220, 254);&quot;&gt;/usr/share/nginx/html/index.html&lt;/span&gt;&lt;/div&gt;" style="rounded=0;whiteSpace=wrap;html=1;" vertex="1" parent="1">
          <mxGeometry x="-320" y="2290" width="180" height="40" as="geometry" />
        </mxCell>
        <mxCell id="FVXrQ5UTmjQ1m_fRflTd-9" value="" style="rounded=0;whiteSpace=wrap;html=1;" vertex="1" parent="1">
          <mxGeometry x="-46" y="2480" width="120" height="40" as="geometry" />
        </mxCell>
        <mxCell id="FVXrQ5UTmjQ1m_fRflTd-11" value="" style="shape=image;html=1;verticalAlign=top;verticalLabelPosition=bottom;labelBackgroundColor=#ffffff;imageAspect=0;aspect=fixed;image=https://cdn1.iconfinder.com/data/icons/unicons-line-vol-3/24/docker-128.png" vertex="1" parent="1">
          <mxGeometry x="34" y="2380" width="70" height="70" as="geometry" />
        </mxCell>
      </root>
    </mxGraphModel>
  </diagram>
</mxfile>
